<mxfile host="app.diagrams.net" agent="Mozilla/5.0 (X11; Linux x86_64; rv:133.0) Gecko/20100101 Firefox/133.0" version="26.0.2">
  <diagram name="Page-1" id="0">
    <mxGraphModel dx="1111" dy="677" grid="1" gridSize="10" guides="1" tooltips="1" connect="1" arrows="1" fold="1" page="1" pageScale="1" pageWidth="827" pageHeight="1169" background="#FFFFFF" math="0" shadow="0">
      <root>
        <mxCell id="0" />
        <mxCell id="1" parent="0" />
        <mxCell id="VfW40to4PNZBmBumhW1B-36" value="testsuite (package)" style="rounded=0;whiteSpace=wrap;html=1;strokeColor=#000000;fillColor=none;fontSize=14;" parent="1" vertex="1">
          <mxGeometry x="354" y="60" width="120" height="40" as="geometry" />
        </mxCell>
        <mxCell id="VfW40to4PNZBmBumhW1B-37" value="setup_grpc.go" style="rounded=0;whiteSpace=wrap;html=1;strokeColor=#000000;fillColor=none;fontSize=14;" parent="1" vertex="1">
          <mxGeometry x="155" y="150" width="120" height="40" as="geometry" />
        </mxCell>
        <mxCell id="VfW40to4PNZBmBumhW1B-38" style="edgeStyle=orthogonalEdgeStyle;rounded=0;html=1;endArrow=block;fontSize=14;" parent="1" source="VfW40to4PNZBmBumhW1B-36" target="VfW40to4PNZBmBumhW1B-37" edge="1">
          <mxGeometry relative="1" as="geometry" />
        </mxCell>
        <mxCell id="VfW40to4PNZBmBumhW1B-39" value="tcp_ip.go" style="rounded=0;whiteSpace=wrap;html=1;strokeColor=#000000;fillColor=none;fontSize=14;" parent="1" vertex="1">
          <mxGeometry x="560" y="150" width="120" height="40" as="geometry" />
        </mxCell>
        <mxCell id="VfW40to4PNZBmBumhW1B-40" style="edgeStyle=orthogonalEdgeStyle;rounded=0;html=1;endArrow=block;fontSize=14;" parent="1" source="VfW40to4PNZBmBumhW1B-36" target="VfW40to4PNZBmBumhW1B-39" edge="1">
          <mxGeometry relative="1" as="geometry" />
        </mxCell>
        <mxCell id="VfW40to4PNZBmBumhW1B-41" value="grpcserver (package)" style="rounded=0;whiteSpace=wrap;html=1;strokeColor=#000000;fillColor=none;fontSize=14;" parent="1" vertex="1">
          <mxGeometry x="140" y="230" width="150" height="40" as="geometry" />
        </mxCell>
        <mxCell id="VfW40to4PNZBmBumhW1B-42" style="edgeStyle=orthogonalEdgeStyle;rounded=0;html=1;endArrow=block;fontSize=14;" parent="1" source="VfW40to4PNZBmBumhW1B-37" target="VfW40to4PNZBmBumhW1B-41" edge="1">
          <mxGeometry relative="1" as="geometry" />
        </mxCell>
        <mxCell id="VfW40to4PNZBmBumhW1B-43" value="common_grpc_test.go" style="rounded=0;whiteSpace=wrap;html=1;strokeColor=#000000;fillColor=none;fontSize=14;" parent="1" vertex="1">
          <mxGeometry x="50" y="330" width="150" height="40" as="geometry" />
        </mxCell>
        <mxCell id="VfW40to4PNZBmBumhW1B-44" style="edgeStyle=orthogonalEdgeStyle;rounded=0;html=1;endArrow=block;fontSize=14;" parent="1" source="VfW40to4PNZBmBumhW1B-41" target="VfW40to4PNZBmBumhW1B-43" edge="1">
          <mxGeometry relative="1" as="geometry" />
        </mxCell>
        <mxCell id="VfW40to4PNZBmBumhW1B-45" value="grpc_test.go" style="rounded=0;whiteSpace=wrap;html=1;strokeColor=#000000;fillColor=none;fontSize=14;" parent="1" vertex="1">
          <mxGeometry x="260" y="330" width="110" height="40" as="geometry" />
        </mxCell>
        <mxCell id="VfW40to4PNZBmBumhW1B-46" style="edgeStyle=orthogonalEdgeStyle;rounded=0;html=1;endArrow=block;fontSize=14;" parent="1" source="VfW40to4PNZBmBumhW1B-41" target="VfW40to4PNZBmBumhW1B-45" edge="1">
          <mxGeometry relative="1" as="geometry" />
        </mxCell>
        <mxCell id="VfW40to4PNZBmBumhW1B-47" value="raspberrypi (package)" style="rounded=0;whiteSpace=wrap;html=1;strokeColor=#000000;fillColor=none;fontSize=14;" parent="1" vertex="1">
          <mxGeometry x="545" y="230" width="150" height="40" as="geometry" />
        </mxCell>
        <mxCell id="VfW40to4PNZBmBumhW1B-48" style="edgeStyle=orthogonalEdgeStyle;rounded=0;html=1;endArrow=block;fontSize=14;" parent="1" source="VfW40to4PNZBmBumhW1B-39" target="VfW40to4PNZBmBumhW1B-47" edge="1">
          <mxGeometry relative="1" as="geometry" />
        </mxCell>
        <mxCell id="VfW40to4PNZBmBumhW1B-49" value="common_raspberrypi_test.go" style="rounded=0;whiteSpace=wrap;html=1;strokeColor=#000000;fillColor=none;fontSize=14;" parent="1" vertex="1">
          <mxGeometry x="414" y="330" width="180" height="40" as="geometry" />
        </mxCell>
        <mxCell id="VfW40to4PNZBmBumhW1B-50" style="edgeStyle=orthogonalEdgeStyle;rounded=0;html=1;endArrow=block;fontSize=14;" parent="1" source="VfW40to4PNZBmBumhW1B-47" target="VfW40to4PNZBmBumhW1B-49" edge="1">
          <mxGeometry relative="1" as="geometry" />
        </mxCell>
        <mxCell id="VfW40to4PNZBmBumhW1B-51" value="raspberrypi_test.go" style="rounded=0;whiteSpace=wrap;html=1;strokeColor=#000000;fillColor=none;fontSize=14;" parent="1" vertex="1">
          <mxGeometry x="670" y="330" width="150" height="40" as="geometry" />
        </mxCell>
        <mxCell id="VfW40to4PNZBmBumhW1B-52" style="edgeStyle=orthogonalEdgeStyle;rounded=0;html=1;endArrow=block;fontSize=14;" parent="1" source="VfW40to4PNZBmBumhW1B-47" target="VfW40to4PNZBmBumhW1B-51" edge="1">
          <mxGeometry relative="1" as="geometry" />
        </mxCell>
      </root>
    </mxGraphModel>
  </diagram>
</mxfile>